<svg id="_x33_7" xmlns="http://www.w3.org/2000/svg" width="35.244" height="35.333" viewBox="0 0 35.244 35.333">
  <path id="Path_21" data-name="Path 21" d="M3.561,33.091a.736.736,0,0,0,.736.736,2.058,2.058,0,0,1,1.433.556,3.58,3.58,0,0,0,4.634,0,2.093,2.093,0,0,1,2.868,0,3.581,3.581,0,0,0,4.634,0,2.094,2.094,0,0,1,2.869,0,3.581,3.581,0,0,0,4.634,0,2.094,2.094,0,0,1,2.869,0,3.586,3.586,0,0,0,4.638,0,2.1,2.1,0,0,1,2.873,0,3.485,3.485,0,0,0,2.32.851.736.736,0,1,0,0-1.472,2.065,2.065,0,0,1-1.437-.557,3.551,3.551,0,0,0-4.639,0l-.063.045,3.662-7.719a.736.736,0,0,0-.316-.963L32.012,22.81v-8.95a3.922,3.922,0,0,0-3.28-3.657V7.529a.736.736,0,0,0-1.472,0v2.557H24.765V5.518A2.02,2.02,0,0,0,22.747,3.5H19.576a2.02,2.02,0,0,0-2.018,2.018v4.568H15.064V7.844a.736.736,0,0,0-1.472,0V10.2a3.922,3.922,0,0,0-3.28,3.657v8.082L7.09,23.414a.736.736,0,0,0-.383.929l3.217,8.549c-.162.1-.308.212-.444.314a2.125,2.125,0,0,1-2.867,0A3.479,3.479,0,0,0,4.3,32.355a.736.736,0,0,0-.736.736ZM19.031,5.518a.546.546,0,0,1,.546-.546h3.171a.546.546,0,0,1,.546.546V6.793H19.031V5.518Zm0,2.747h4.262v1.821H19.031Zm-7.247,5.6a2.634,2.634,0,0,1,2.866-2.3H27.673a2.634,2.634,0,0,1,2.866,2.3v8.154c-9.608-5.147-9.065-4.95-9.381-4.95s-.43.155-9.374,4.206ZM8.327,24.468l12.8-5.845,12.831,6.91-3.8,8.015a.708.708,0,0,0-.043.175,2.3,2.3,0,0,1-1-.516,3.545,3.545,0,0,0-4.636,0,2.057,2.057,0,0,1-1.433.556,1.864,1.864,0,0,1-1.2-.39.722.722,0,0,0,.048-.24V27.622a.736.736,0,0,0-1.472,0v4.9a3.614,3.614,0,0,0-3.442.68,2.126,2.126,0,0,1-2.868,0,3.49,3.49,0,0,0-2.808-.818Z" transform="translate(-3.561 -3.5)" fill="#fff"/>
  <path id="Path_22" data-name="Path 22" d="M4.3,49.056a2.058,2.058,0,0,1,1.433.556,3.58,3.58,0,0,0,4.634,0,2.093,2.093,0,0,1,2.868,0,3.581,3.581,0,0,0,4.634,0,2.094,2.094,0,0,1,2.869,0,3.581,3.581,0,0,0,4.634,0c2.36-1.772,2.566.851,5.187.851a3.484,3.484,0,0,0,2.319-.851,2.1,2.1,0,0,1,2.873,0,3.485,3.485,0,0,0,2.32.851.736.736,0,1,0,0-1.472,2.065,2.065,0,0,1-1.437-.557,3.551,3.551,0,0,0-4.639,0,2.131,2.131,0,0,1-2.871,0,3.545,3.545,0,0,0-4.636,0,2.126,2.126,0,0,1-2.868,0,3.544,3.544,0,0,0-4.636,0,2.126,2.126,0,0,1-2.868,0,3.543,3.543,0,0,0-4.635,0,2.125,2.125,0,0,1-2.867,0A3.479,3.479,0,0,0,4.3,47.584a.736.736,0,0,0,0,1.472Z" transform="translate(-3.561 -15.13)" fill="#fff"/>
  <path id="Path_23" data-name="Path 23" d="M27.207,30.192a.736.736,0,0,0,.736-.736V27.521a.736.736,0,1,0-1.472,0v1.936A.736.736,0,0,0,27.207,30.192Z" transform="translate(-9.606 -9.645)" fill="#fff"/>
  <path id="Path_24" data-name="Path 24" d="M17.924,17.448a.736.736,0,0,0-.736.736v.968a.736.736,0,0,0,1.472,0v-.968A.736.736,0,0,0,17.924,17.448Z" transform="translate(-7.157 -7.181)" fill="#fff"/>
  <path id="Path_25" data-name="Path 25" d="M24.113,17.448a.736.736,0,0,0-.736.736v.968a.736.736,0,0,0,1.472,0v-.968A.736.736,0,0,0,24.113,17.448Z" transform="translate(-8.79 -7.181)" fill="#fff"/>
  <path id="Path_26" data-name="Path 26" d="M30.3,19.749a.736.736,0,0,0,.736-.736v-.969a.736.736,0,0,0-1.472,0v.969A.736.736,0,0,0,30.3,19.749Z" transform="translate(-10.423 -7.144)" fill="#fff"/>
  <path id="Path_27" data-name="Path 27" d="M36.492,19.749a.736.736,0,0,0,.736-.736v-.969a.736.736,0,1,0-1.472,0v.969A.736.736,0,0,0,36.492,19.749Z" transform="translate(-12.056 -7.144)" fill="#fff"/>
</svg>
