<svg xmlns="http://www.w3.org/2000/svg" width="39.501" height="50.408" viewBox="0 0 39.501 50.408">
  <path id="verified_user_FILL0_wght100_GRAD0_opsz48" d="M27.255,37.386l-6.117-6.117a.737.737,0,0,0-1.179,0,.616.616,0,0,0-.258.59.935.935,0,0,0,.258.59l5.9,5.822a1.872,1.872,0,0,0,1.363.59,2.124,2.124,0,0,0,1.437-.59L40.668,26.258a1.026,1.026,0,0,0,.221-.626.782.782,0,0,0-1.327-.553Zm3.1,19.971a3.914,3.914,0,0,1-.553-.037,1.356,1.356,0,0,1-.405-.111A27.7,27.7,0,0,1,15.943,46.561,29.613,29.613,0,0,1,10.6,29.28V16.9a4.237,4.237,0,0,1,2.579-3.832L28.95,7.245a3.473,3.473,0,0,1,2.8,0l15.771,5.822A4.237,4.237,0,0,1,50.1,16.9V29.28a29.613,29.613,0,0,1-5.343,17.282A27.753,27.753,0,0,1,31.382,57.21a6.015,6.015,0,0,1-1.032.147Zm0-1.548a24.626,24.626,0,0,0,13.007-9.949A28.592,28.592,0,0,0,48.479,29.28v-12.9a1.816,1.816,0,0,0-.295-1.032,1.41,1.41,0,0,0-.811-.59l-15.918-5.9a2.874,2.874,0,0,0-2.211,0l-15.918,5.9a1.41,1.41,0,0,0-.811.59,1.816,1.816,0,0,0-.295,1.032v12.9a28.592,28.592,0,0,0,5.122,16.581A24.626,24.626,0,0,0,30.35,55.81ZM30.35,32.228Z" transform="translate(-10.6 -6.95)" fill="#fff"/>
</svg>
