<svg xmlns="http://www.w3.org/2000/svg" width="40" height="51.292" viewBox="0 0 40 51.292">
  <path id="where_to_vote_FILL0_wght100_GRAD0_opsz48" d="M26.443,31.422,37.327,20.538,36.239,19.45l-9.8,9.864L22.429,25.3l-1.02,1.088ZM29.3,54.484A67.414,67.414,0,0,0,42.939,39.041Q47.8,31.15,47.8,25.844a18.557,18.557,0,0,0-5.34-13.707A17.887,17.887,0,0,0,29.3,6.8a17.887,17.887,0,0,0-13.163,5.34A18.557,18.557,0,0,0,10.8,25.844q0,5.306,4.9,13.2A68.869,68.869,0,0,0,29.3,54.484Zm0,2.109q-10.136-9.116-15.068-16.9T9.3,25.844q0-9.388,6.054-14.966a20.221,20.221,0,0,1,27.891,0Q49.3,16.456,49.3,25.844q0,6.054-4.932,13.844T29.3,56.592ZM29.3,25.844Z" transform="translate(-9.3 -5.3)" fill="#fff"/>
</svg>
