<svg xmlns="http://www.w3.org/2000/svg" width="48.364" height="55.467" viewBox="0 0 48.364 55.467">
  <path id="headphones" d="M73.419,22.8,73,22.744v-.415a18.822,18.822,0,1,0-37.643,0v.415l-.415.054C33.457,22.985,30,23.923,30,28.654V38.731c0,5.535,4.57,5.963,5.963,5.963h3.109a.6.6,0,0,0,.6-.6V23.333a.6.6,0,0,0-.6-.6H36.566v-.469a17.622,17.622,0,0,1,35.245,0v.469H69.305a.6.6,0,0,0-.6.6V44.051a.6.6,0,0,0,.6.6h2.519l-.027.482c-.147,3.779-1.152,6.245-3.149,7.746-1.729,1.3-4.181,1.93-8.2,2.1l-.5.027V53.807a1.676,1.676,0,0,0-1.675-1.675H51.535a1.676,1.676,0,0,0-1.675,1.675v3.484a1.676,1.676,0,0,0,1.675,1.675H58.3a1.676,1.676,0,0,0,1.675-1.675V56.22l.442-.027c3.538-.161,6.352-.563,8.536-2.024,2.56-1.7,3.886-4.69,4.047-9.139l.013-.4.4-.054c1.488-.188,4.945-1.126,4.945-5.856V28.64C78.378,24.1,75.269,23.025,73.419,22.8Zm3.806,5.9-.054,10.037h0a4.375,4.375,0,0,1-4.757,4.757H69.908V23.937h2.56A4.375,4.375,0,0,1,77.225,28.694ZM35.91,23.87h2.56V43.462H35.91A4.375,4.375,0,0,1,31.152,38.7V28.627A4.369,4.369,0,0,1,35.91,23.87ZM58.785,53.955v3.23a.6.6,0,0,1-.59.59H51.683a.6.6,0,0,1-.59-.59v-3.23a.6.6,0,0,1,.59-.59H58.2A.578.578,0,0,1,58.785,53.955Z" transform="translate(-30 -3.5)" fill="#fff"/>
</svg>
