<svg xmlns="http://www.w3.org/2000/svg" width="50" height="50" viewBox="0 0 50 50">
  <path id="sentiment_satisfied_FILL0_wght100_GRAD0_opsz48" d="M41.083,27a2.58,2.58,0,0,0,1.94-.826,2.674,2.674,0,0,0,.79-1.9,2.58,2.58,0,0,0-.826-1.94,2.674,2.674,0,0,0-1.9-.79,2.73,2.73,0,0,0,0,5.46ZM22.117,27a2.58,2.58,0,0,0,1.94-.826,2.674,2.674,0,0,0,.79-1.9,2.58,2.58,0,0,0-.826-1.94,2.674,2.674,0,0,0-1.9-.79,2.73,2.73,0,0,0,0,5.46Zm9.483,18.1a13.038,13.038,0,0,0,7.148-2.083,13.728,13.728,0,0,0,4.993-5.532H41.8a11.989,11.989,0,0,1-4.346,4.274,11.869,11.869,0,0,1-11.71,0,11.443,11.443,0,0,1-4.274-4.274H19.459a13.728,13.728,0,0,0,4.993,5.532A13.038,13.038,0,0,0,31.6,45.106Zm0,11.494a24.229,24.229,0,0,1-9.734-1.976,25.061,25.061,0,0,1-13.29-13.29,24.969,24.969,0,0,1,0-19.468,25.061,25.061,0,0,1,13.29-13.29,24.969,24.969,0,0,1,19.468,0,25.061,25.061,0,0,1,13.29,13.29,24.969,24.969,0,0,1,0,19.468,25.061,25.061,0,0,1-13.29,13.29A24.229,24.229,0,0,1,31.6,56.6ZM31.6,31.6Zm0,23.42a22.65,22.65,0,0,0,16.595-6.789A22.555,22.555,0,0,0,55.02,31.6a22.65,22.65,0,0,0-6.789-16.595A22.555,22.555,0,0,0,31.6,8.18a22.65,22.65,0,0,0-16.595,6.789A22.555,22.555,0,0,0,8.18,31.6a22.65,22.65,0,0,0,6.789,16.595A22.555,22.555,0,0,0,31.6,55.02Z" transform="translate(-6.6 -6.6)" fill="#fff"/>
</svg>
