<svg id="location" xmlns="http://www.w3.org/2000/svg" width="26.418" height="31.23" viewBox="0 0 26.418 31.23">
  <g id="Group_208" data-name="Group 208">
    <g id="Group_207" data-name="Group 207">
      <path id="Path_151" data-name="Path 151" d="M62,3.869a13.209,13.209,0,0,0-22.549,9.34c0,7.137,6.749,13.074,10.374,16.263.5.443.939.826,1.286,1.15a2.276,2.276,0,0,0,3.1,0c.347-.324.782-.707,1.286-1.15,3.626-3.189,10.374-9.126,10.374-16.263A13.123,13.123,0,0,0,62,3.869ZM54.286,28.1c-.515.453-.959.844-1.326,1.186a.441.441,0,0,1-.6,0c-.367-.342-.811-.734-1.326-1.187-3.408-3-9.753-8.579-9.753-14.889a11.379,11.379,0,0,1,22.759,0C64.039,19.519,57.695,25.1,54.286,28.1Z" transform="translate(-39.451)" fill="#5ebf88"/>
    </g>
  </g>
  <g id="Group_210" data-name="Group 210" transform="translate(7.388 6.889)">
    <g id="Group_209" data-name="Group 209" transform="translate(0)">
      <path id="Path_152" data-name="Path 152" d="M166.391,112.938a5.821,5.821,0,1,0,5.821,5.821A5.827,5.827,0,0,0,166.391,112.938Zm0,9.812a3.992,3.992,0,1,1,3.991-3.992A4,4,0,0,1,166.391,122.75Z" transform="translate(-160.57 -112.938)" fill="#5ebf88"/>
    </g>
  </g>
</svg>
