<svg xmlns="http://www.w3.org/2000/svg" width="189.326" height="58.113" viewBox="0 0 189.326 58.113">
  <g id="Travel_Memories_Logo_-_Blue_-_Horizontal" data-name="Travel Memories Logo - Blue - Horizontal" transform="translate(0 -0.007)">
    <path id="Path_1" data-name="Path 1" d="M25.352,90.86l-.218.194A132.2,132.2,0,0,1,13.142,74.179l10.483-3.772C24.2,80.551,25.352,90.86,25.352,90.86Z" transform="translate(-6.148 -32.933)" fill="#5ebf88"/>
    <path id="Path_2" data-name="Path 2" d="M56.065,74.179A131.948,131.948,0,0,1,44.074,91.054l-.215-.194s1.152-10.309,1.726-20.453Z" transform="translate(-20.517 -32.933)" fill="#5ebf88"/>
    <path id="Path_3" data-name="Path 3" d="M42.545,21.279c0,4.7-1.847,10.059-4.452,15.284L25.334,25.288c-.252-9.5-1.683-18.124-4.063-18.124s-3.808,8.622-4.06,18.124L4.45,36.561C1.845,31.339,0,25.978,0,21.279a21.272,21.272,0,0,1,42.545,0Z" transform="translate(0)" fill="#0768b3"/>
    <path id="Path_4" data-name="Path 4" d="M131.369,2.817V7.523h-7.326V29.387h-4.972V7.523h-7.25V2.817Z" transform="translate(-52.31 -1.315)" fill="#0768b3"/>
    <path id="Path_5" data-name="Path 5" d="M161.037,17.078l-.342,4.479a2.9,2.9,0,0,0-.835-.114,5.715,5.715,0,0,0-3.872,1.31,4.533,4.533,0,0,0-1.518,3.625v9.679h-4.707V17.078h4.707v3.454a5.541,5.541,0,0,1,2.2-2.467,6.876,6.876,0,0,1,3.758-.987Z" transform="translate(-70.06 -7.984)" fill="#0768b3"/>
    <path id="Path_6" data-name="Path 6" d="M187.9,16.645h4.707V35.624H187.9V33.65a6.881,6.881,0,0,1-5.5,2.505,9.594,9.594,0,0,1-5.01-1.29,8.726,8.726,0,0,1-3.34-3.568,11,11,0,0,1-1.177-5.124,11,11,0,0,1,1.177-5.124,8.859,8.859,0,0,1,3.34-3.587,9.482,9.482,0,0,1,5.01-1.31,7.025,7.025,0,0,1,5.5,2.505Zm-1.537,13.513a5.561,5.561,0,0,0,1.537-4.023,5.473,5.473,0,0,0-1.518-3.986,5.178,5.178,0,0,0-3.872-1.556,4.542,4.542,0,0,0-3.606,1.632,5.848,5.848,0,0,0-1.4,3.948,5.827,5.827,0,0,0,1.4,3.967,4.563,4.563,0,0,0,3.606,1.613,5.13,5.13,0,0,0,3.852-1.594Z" transform="translate(-80.869 -7.552)" fill="#0768b3"/>
    <path id="Path_7" data-name="Path 7" d="M223.755,30.366l4.972-13.285H233.7l-7.06,18.979h-5.77L213.81,17.08h4.972Z" transform="translate(-100.021 -7.987)" fill="#0768b3"/>
    <path id="Path_8" data-name="Path 8" d="M267.259,17.5a9.37,9.37,0,0,1,3.4,3.625,10.563,10.563,0,0,1,1.215,5.049,8.556,8.556,0,0,1-.152,1.67H257.03a5.461,5.461,0,0,0,2.012,3.093,5.89,5.89,0,0,0,3.682,1.158,6.13,6.13,0,0,0,2.676-.608,4.684,4.684,0,0,0,1.917-1.556l3.606,2.126a8.774,8.774,0,0,1-3.435,3.018,10.761,10.761,0,0,1-4.839,1.044,11.025,11.025,0,0,1-5.39-1.29,9.145,9.145,0,0,1-3.644-3.568,10.209,10.209,0,0,1-1.29-5.124,10.25,10.25,0,0,1,1.272-5.087,9.254,9.254,0,0,1,3.568-3.587,10.27,10.27,0,0,1,5.181-1.31,9.17,9.17,0,0,1,4.916,1.348Zm.171,6.661a4.172,4.172,0,0,0-1.67-2.866,5.692,5.692,0,0,0-3.492-1.044,6.426,6.426,0,0,0-2.638.531,4.958,4.958,0,0,0-1.917,1.442,3.268,3.268,0,0,0-.759,1.936Z" transform="translate(-118.037 -7.553)" fill="#0768b3"/>
    <path id="Path_9" data-name="Path 9" d="M299.395,24.908a1.338,1.338,0,0,0,.93.266,8.633,8.633,0,0,0,1.215-.114v4.327a16.43,16.43,0,0,1-2.619.228,4.55,4.55,0,0,1-3.359-1.157Q294.4,27.3,294.4,24.339V2.817h4.707V24.035A1.149,1.149,0,0,0,299.395,24.908Z" transform="translate(-137.723 -1.315)" fill="#0768b3"/>
    <path id="Path_10" data-name="Path 10" d="M132.1,67.66v-.029h1.508V87.937H132.1v-17.7l-7.368,12.445h-.406l-7.4-12.5V87.966h-1.509V67.66h1.509v.029l.2-.058,7.4,12.56,7.4-12.56Z" transform="translate(-53.993 -31.635)" fill="#0768b3"/>
    <path id="Path_11" data-name="Path 11" d="M168.252,78.976a7.1,7.1,0,0,1,2.538,2.8,8.187,8.187,0,0,1,.9,3.786q0,.029-.058.609H158.4a5.8,5.8,0,0,0,.885,2.785A5.864,5.864,0,0,0,161.479,91a6.734,6.734,0,0,0,6.222.015,4.971,4.971,0,0,0,2.074-1.856l1.189.7a6.427,6.427,0,0,1-2.582,2.364,8.64,8.64,0,0,1-7.731-.116,6.9,6.9,0,0,1-2.727-2.7,8.255,8.255,0,0,1-.015-7.745,7.058,7.058,0,0,1,2.683-2.727,7.638,7.638,0,0,1,3.9-1A6.838,6.838,0,0,1,168.252,78.976Zm2.045,5.918a6.7,6.7,0,0,0-1.8-4.148,5.45,5.45,0,0,0-4.032-1.509,6.191,6.191,0,0,0-3.133.8,5.79,5.79,0,0,0-2.161,2.1,5.345,5.345,0,0,0-.769,2.756Z" transform="translate(-73.423 -36.453)" fill="#0768b3"/>
    <path id="Path_12" data-name="Path 12" d="M210.128,78.454a5.1,5.1,0,0,1,2.32,1.9,6.359,6.359,0,0,1,.972,3.727v8.674h-1.392V84.081a4.4,4.4,0,0,0-1.436-3.713,5.261,5.261,0,0,0-3.292-1.1,4.382,4.382,0,0,0-3.09,1.233q-1.32,1.233-1.32,4.192v8.065h-1.421V84.081a4.4,4.4,0,0,0-1.436-3.713,5.261,5.261,0,0,0-3.292-1.1,4.382,4.382,0,0,0-3.09,1.233q-1.32,1.233-1.32,4.192v8.065H190.91v-14.5h1.421v2.2a5.481,5.481,0,0,1,1.871-1.8,5.153,5.153,0,0,1,2.712-.725,7.138,7.138,0,0,1,3.22.8,4.759,4.759,0,0,1,2.321,2.712,4.994,4.994,0,0,1,1.8-2.451,5.1,5.1,0,0,1,3.22-1.059,7.328,7.328,0,0,1,2.654.522Z" transform="translate(-89.308 -36.453)" fill="#0768b3"/>
    <path id="Path_13" data-name="Path 13" d="M243.083,92.085a7.557,7.557,0,0,1,0-13.083,7.41,7.41,0,0,1,3.8-1.016A7.282,7.282,0,0,1,250.64,79a7.575,7.575,0,0,1,0,13.083,7.277,7.277,0,0,1-3.757,1.016,7.4,7.4,0,0,1-3.8-1.016Zm6.861-1.233a6.155,6.155,0,1,0-6.179,0A6.182,6.182,0,0,0,249.944,90.852Z" transform="translate(-111.951 -36.479)" fill="#0768b3"/>
    <path id="Path_14" data-name="Path 14" d="M280.65,78.559l-.174,1.364a2.639,2.639,0,0,0-.464-.029,5.02,5.02,0,0,0-3.278,1.088,4.328,4.328,0,0,0-1.334,3.553v8.5h-1.421v-14.5H275.4v2.7a4.22,4.22,0,0,1,1.726-1.929,5.509,5.509,0,0,1,2.973-.769,4.211,4.211,0,0,1,.551.029Z" transform="translate(-128.168 -36.733)" fill="#0768b3"/>
    <path id="Path_15" data-name="Path 15" d="M292.829,68.19a.983.983,0,0,1-.319-.74,1.031,1.031,0,0,1,.319-.754,1,1,0,0,1,.725-.319,1.089,1.089,0,0,1,1.073,1.073.984.984,0,0,1-.319.74,1.056,1.056,0,0,1-.754.3A1.021,1.021,0,0,1,292.829,68.19Zm0,19.16v-14.5h1.421v14.5Z" transform="translate(-136.837 -31.048)" fill="#0768b3"/>
    <path id="Path_16" data-name="Path 16" d="M313.783,78.976a7.1,7.1,0,0,1,2.539,2.8,8.188,8.188,0,0,1,.9,3.786q0,.029-.058.609H303.935a5.8,5.8,0,0,0,.885,2.785A5.864,5.864,0,0,0,307.01,91a6.734,6.734,0,0,0,6.222.015,4.971,4.971,0,0,0,2.074-1.856l1.189.7a6.427,6.427,0,0,1-2.582,2.364,8.64,8.64,0,0,1-7.731-.116,6.9,6.9,0,0,1-2.727-2.7,8.256,8.256,0,0,1-.015-7.745,7.058,7.058,0,0,1,2.683-2.727,7.638,7.638,0,0,1,3.9-1A6.838,6.838,0,0,1,313.783,78.976Zm2.045,5.918a6.7,6.7,0,0,0-1.8-4.148A5.45,5.45,0,0,0,310,79.237a6.191,6.191,0,0,0-3.133.8,5.789,5.789,0,0,0-2.161,2.1,5.344,5.344,0,0,0-.769,2.756Z" transform="translate(-141.503 -36.453)" fill="#0768b3"/>
    <path id="Path_17" data-name="Path 17" d="M337.338,83.328a3.587,3.587,0,0,0,1.247.726q.74.26,2.132.609a21.756,21.756,0,0,1,2.756.812,4.672,4.672,0,0,1,1.784,1.219,3.108,3.108,0,0,1,.74,2.176,3.606,3.606,0,0,1-.7,2.176,4.593,4.593,0,0,1-1.914,1.494,7.673,7.673,0,0,1-6.4-.348,4.906,4.906,0,0,1-2.074-2.364l1.218-.638a3.612,3.612,0,0,0,1.683,1.958,5.693,5.693,0,0,0,2.785.653,4.98,4.98,0,0,0,2.828-.783,2.45,2.45,0,0,0,1.175-2.146,1.9,1.9,0,0,0-.566-1.421,3.739,3.739,0,0,0-1.392-.841q-.827-.289-2.248-.638a26.1,26.1,0,0,1-2.611-.769,4.32,4.32,0,0,1-1.682-1.1,2.74,2.74,0,0,1-.7-1.958,3.723,3.723,0,0,1,.652-2.147,4.445,4.445,0,0,1,1.813-1.509,6.628,6.628,0,0,1,5.744.218,4.728,4.728,0,0,1,1.972,2.132l-1.189.638a3.418,3.418,0,0,0-1.451-1.682,4.649,4.649,0,0,0-2.437-.609,4.171,4.171,0,0,0-2.7.8,2.6,2.6,0,0,0-.986,2.132,1.572,1.572,0,0,0,.507,1.218Z" transform="translate(-156.675 -36.454)" fill="#0768b3"/>
  </g>
</svg>
