<svg xmlns="http://www.w3.org/2000/svg" width="23.714" height="23.714" viewBox="0 0 23.714 23.714">
  <path id="account_circle_FILL0_wght300_GRAD0_opsz48" d="M9.119,23.94a18.382,18.382,0,0,1,3.729-2,11.025,11.025,0,0,1,4.01-.718,11.15,11.15,0,0,1,4.025.718,18.213,18.213,0,0,1,3.744,2A11.673,11.673,0,0,0,26.639,20.6a10.357,10.357,0,0,0,.671-3.744A10.285,10.285,0,0,0,16.857,6.4,10.285,10.285,0,0,0,6.4,16.857,10.357,10.357,0,0,0,7.075,20.6,11.339,11.339,0,0,0,9.119,23.94Zm7.738-6.365a3.943,3.943,0,0,1-3.994-3.994,3.943,3.943,0,0,1,3.994-3.994,3.943,3.943,0,0,1,3.994,3.994,3.943,3.943,0,0,1-3.994,3.994Zm0,11.139a11.455,11.455,0,0,1-4.618-.936,11.972,11.972,0,0,1-6.3-6.3,11.859,11.859,0,0,1,0-9.236,11.972,11.972,0,0,1,6.3-6.3,11.859,11.859,0,0,1,9.236,0,11.972,11.972,0,0,1,6.3,6.3,11.859,11.859,0,0,1,0,9.236,11.972,11.972,0,0,1-6.3,6.3A11.455,11.455,0,0,1,16.857,28.714Zm0-1.4a10.787,10.787,0,0,0,3.432-.562,10.1,10.1,0,0,0,3.183-1.779,11.9,11.9,0,0,0-3.167-1.716,10.228,10.228,0,0,0-3.448-.593,10.362,10.362,0,0,0-3.464.593,11.36,11.36,0,0,0-3.152,1.716,10.1,10.1,0,0,0,3.183,1.779A10.787,10.787,0,0,0,16.857,27.31Zm0-11.171a2.458,2.458,0,0,0,2.559-2.559,2.559,2.559,0,1,0-5.117,0,2.458,2.458,0,0,0,2.559,2.559ZM16.857,13.581ZM16.857,24.97Z" transform="translate(-5 -5)" fill="#45aa71"/>
</svg>
