<svg xmlns="http://www.w3.org/2000/svg" width="40.883" height="40.884" viewBox="0 0 40.883 40.884">
  <g id="OUTLINE" transform="translate(-15.999 -16)">
    <path id="Path_153" data-name="Path 153" d="M218.153,17.363a19.372,19.372,0,0,1,1.974.1l.14-1.356a20.688,20.688,0,0,0-5.637.195l.233,1.343A19.266,19.266,0,0,1,218.153,17.363Z" transform="translate(-181.713 0)" fill="#5ebf88"/>
    <path id="Path_154" data-name="Path 154" d="M25.257,62.647l-.8-1.1a20.457,20.457,0,0,0-6.343,25.627l1.221-.605a19.095,19.095,0,0,1,5.922-23.919Z" transform="translate(0 -41.665)" fill="#5ebf88"/>
    <path id="Path_155" data-name="Path 155" d="M263.729,469.93l.046,1.362a20.407,20.407,0,0,0,5.639-.992l-.423-1.3A19.044,19.044,0,0,1,263.729,469.93Z" transform="translate(-226.63 -414.421)" fill="#5ebf88"/>
    <path id="Path_156" data-name="Path 156" d="M112,248h1.363v15.672H112Z" transform="translate(-87.824 -212.24)" fill="#5ebf88"/>
    <path id="Path_157" data-name="Path 157" d="M160,248h1.363v15.672H160Z" transform="translate(-131.736 -212.24)" fill="#5ebf88"/>
    <path id="Path_158" data-name="Path 158" d="M208,248h1.363v15.672H208Z" transform="translate(-175.647 -212.24)" fill="#5ebf88"/>
    <path id="Path_159" data-name="Path 159" d="M100.409,37.1,88.128,31.192a2.047,2.047,0,0,0-2.728.956l-3.684,7.658V33.035a3.411,3.411,0,0,0-3.407-3.407H75.584v-10.9a2.726,2.726,0,0,0-5.451,0v10.9H67.407A3.411,3.411,0,0,0,64,33.035V50.751a3.413,3.413,0,0,0,2.246,3.2,2.044,2.044,0,1,0,3.769.2H75.7a2.044,2.044,0,1,0,3.769-.2,3.419,3.419,0,0,0,2.161-2.448l9.622,4.628a.681.681,0,0,0,.909-.319l8.565-17.807a.681.681,0,0,0-.319-.909ZM87.243,32.353a.677.677,0,0,1,.294.067L99.2,38.032l-.591,1.228L86.947,33.648a.682.682,0,0,1-.319-.909h0a.682.682,0,0,1,.615-.386ZM71.5,18.726a1.363,1.363,0,1,1,2.726,0v10.9H71.5ZM68.77,54.839a.681.681,0,1,1-.681-.681.681.681,0,0,1,.681.681Zm8.858.681a.681.681,0,1,1,.681-.681.681.681,0,0,1-.681.681Zm.681-2.726h-10.9a2.047,2.047,0,0,1-2.044-2.044V33.035a2.047,2.047,0,0,1,2.044-2.044h2.726V34.4H71.5V30.991h2.726V34.4h1.363V30.991h2.726a2.047,2.047,0,0,1,2.044,2.044v9.6L78.016,47.5a2.044,2.044,0,0,0,.956,2.728l1.376.662A2.046,2.046,0,0,1,78.309,52.8Zm12.92,1.816L79.563,49a.681.681,0,0,1-.319-.909l6.549-13.615a2.034,2.034,0,0,0,.563.4l11.667,5.612Z" transform="translate(-43.913 -0.001)" fill="#5ebf88"/>
    <path id="Path_160" data-name="Path 160" d="M310.979,278.175a4.77,4.77,0,1,0,2.231,6.366A4.769,4.769,0,0,0,310.979,278.175Zm1.236,5.131-1.222-.588a6.62,6.62,0,0,0,.4-2.351l0-.236A3.419,3.419,0,0,1,312.215,283.307Zm-4.236,1.339-.18.139,0-.227a5.256,5.256,0,0,1,.269-1.735l1.1.529A5.257,5.257,0,0,1,307.979,284.646Zm.677-3.051a5.257,5.257,0,0,1,1.187-1.294l.18-.139,0,.227a5.257,5.257,0,0,1-.27,1.735Zm.26-2.528c.093,0,.186.005.279.013l-.186.144A6.623,6.623,0,0,0,307.42,281l-1.22-.587A3.418,3.418,0,0,1,308.917,279.067Zm-3.31,2.573,1.222.588a6.622,6.622,0,0,0-.4,2.35l0,.238A3.414,3.414,0,0,1,305.607,281.64Zm3.02,4.228.187-.145a6.621,6.621,0,0,0,1.589-1.776l1.222.588a3.419,3.419,0,0,1-3,1.333Z" transform="translate(-263.6 -239.413)" fill="#5ebf88"/>
    <path id="Path_161" data-name="Path 161" d="M0,0H1.363V6.814H0Z" transform="translate(38.679 48.941) rotate(-64.332)" fill="#5ebf88"/>
    <path id="Path_162" data-name="Path 162" d="M228.406,109.511a2.129,2.129,0,0,0-3.008,0,.765.765,0,0,1-1.081,0l-.17-.17a4.782,4.782,0,0,0-6.755,0,1.956,1.956,0,0,1-1.392.577v1.363a3.31,3.31,0,0,0,2.356-.976,3.418,3.418,0,0,1,4.828,0l.17.17a2.129,2.129,0,0,0,3.008,0,.765.765,0,0,1,1.081,0l1.256,1.256a13.742,13.742,0,0,0,9.183,4.04,19.041,19.041,0,0,1,.56,3.467l1.36-.093a20.25,20.25,0,0,0-2.117-7.755l-1.218.612a19,19,0,0,1,1,2.378,12.385,12.385,0,0,1-7.8-3.613Z" transform="translate(-182.966 -84.113)" fill="#5ebf88"/>
    <path id="Path_163" data-name="Path 163" d="M288.326,19.307l11.349,6.936a2.038,2.038,0,0,0,2.511-.3l2.648-2.648a.681.681,0,0,0,0-.964l-1.363-1.363a.682.682,0,0,0-.86-.085l-1.666,1.111-3.111-2.074,1.612-2.149a.681.681,0,0,0-.063-.891L298.7,16.2a.681.681,0,0,0-.786-.128l-3.754,1.877-1.261-.757a3.4,3.4,0,0,0-4.162.512l-.539.539a.681.681,0,0,0,.127,1.063Zm3.874-.946,1.582.949a.682.682,0,0,0,.655.025l3.415-1.707-1.539,2.052a.681.681,0,0,0,.167.976l4.088,2.726a.682.682,0,0,0,.756,0l1.579-1.053.486.486-2.166,2.166a.679.679,0,0,1-.837.1L289.778,18.6a2.041,2.041,0,0,1,2.422-.236Z" transform="translate(-248.834)" fill="#5ebf88"/>
  </g>
</svg>
