<svg xmlns="http://www.w3.org/2000/svg" width="70" height="70" viewBox="0 0 70 70">
  <g id="Group_272" data-name="Group 272" transform="translate(-680 -3764)">
    <circle id="Ellipse_3" data-name="Ellipse 3" cx="35" cy="35" r="35" transform="translate(680 3764)" fill="#5ebf88"/>
    <path id="quote" d="M5.46,6.823A8.57,8.57,0,0,0,3.1,13.166c0,5.163,3.688,9.737,8.851,12.1l1.328-1.918c-4.868-2.655-5.9-6.048-6.2-8.261a4.375,4.375,0,0,0,2.8.443,5.152,5.152,0,0,0,4.721-5.163,5.821,5.821,0,0,0-1.475-3.688A4.893,4.893,0,0,0,9.444,5.2,5.8,5.8,0,0,0,5.46,6.823Zm14.752,0a8.57,8.57,0,0,0-2.36,6.344c0,5.163,3.688,9.737,8.851,12.1l1.328-1.918c-4.868-2.655-5.9-6.048-6.2-8.261a4.375,4.375,0,0,0,2.8.443,5.152,5.152,0,0,0,4.721-5.163,5.821,5.821,0,0,0-1.475-3.688A4.682,4.682,0,0,0,24.2,5.2a5.8,5.8,0,0,0-3.983,1.623Z" transform="translate(698.9 3783.8)" fill="#fff"/>
  </g>
</svg>
