<svg xmlns="http://www.w3.org/2000/svg" width="19.3" height="19.542" viewBox="0 0 19.3 19.542">
  <path id="search_FILL0_wght200_GRAD0_opsz48" d="M25.971,27.092,22.822,23.66a8.284,8.284,0,0,1-2.806,1.655,9.55,9.55,0,0,1-3.21.565,8.912,8.912,0,0,1-6.521-2.665,8.811,8.811,0,0,1-2.685-6.5A9.1,9.1,0,0,1,16.765,7.55a8.912,8.912,0,0,1,6.521,2.665,8.811,8.811,0,0,1,2.685,6.5,9.365,9.365,0,0,1-.585,3.25,8.556,8.556,0,0,1-1.676,2.806l3.19,3.392Zm-9.165-2.463a7.72,7.72,0,0,0,5.653-2.281,7.618,7.618,0,0,0,2.3-5.633,7.86,7.86,0,0,0-7.954-7.954,7.86,7.86,0,0,0-7.954,7.954,7.618,7.618,0,0,0,2.3,5.633A7.72,7.72,0,0,0,16.806,24.629Z" transform="translate(-7.6 -7.55)"/>
</svg>
