<svg xmlns="http://www.w3.org/2000/svg" xmlns:xlink="http://www.w3.org/1999/xlink" width="45" height="45" viewBox="0 0 45 45">
  <defs>
    <clipPath id="clip-path">
      <rect id="Rectangle_91" data-name="Rectangle 91" width="18.907" height="18.072" fill="#fff"/>
    </clipPath>
  </defs>
  <g id="Group_274" data-name="Group 274" transform="translate(-1544 -5844.334)">
    <g id="Group_176" data-name="Group 176" transform="translate(1557 5857.334)">
      <g id="Group_175" data-name="Group 175" transform="translate(0)">
        <g id="Group_174" data-name="Group 174" clip-path="url(#clip-path)">
          <path id="Path_139" data-name="Path 139" d="M2.293,0A2.113,2.113,0,1,0,2.24,4.213h.026A2.113,2.113,0,1,0,2.293,0" fill="#fff"/>
          <rect id="Rectangle_90" data-name="Rectangle 90" width="4.053" height="12.194" transform="translate(0.24 5.878)" fill="#fff"/>
          <path id="Path_140" data-name="Path 140" d="M228.7,189.108a5.078,5.078,0,0,0-3.653,2.055v-1.768H221v12.194h4.053v-6.809a2.778,2.778,0,0,1,.134-.989,2.219,2.219,0,0,1,2.08-1.482c1.467,0,2.053,1.118,2.053,2.757v6.523h4.053V194.6c0-3.745-2-5.488-4.666-5.488" transform="translate(-214.464 -183.516)" fill="#fff"/>
        </g>
      </g>
    </g>
    <g id="Ellipse_15" data-name="Ellipse 15" transform="translate(1544 5844.334)" fill="none" stroke="#fff" stroke-width="1" opacity="0.4">
      <circle cx="22.5" cy="22.5" r="22.5" stroke="none"/>
      <circle cx="22.5" cy="22.5" r="22" fill="none"/>
    </g>
  </g>
</svg>
