<svg xmlns="http://www.w3.org/2000/svg" width="45" height="45" viewBox="0 0 45 45">
  <g id="Group_271" data-name="Group 271" transform="translate(-1349 -5844.334)">
    <g id="Path_264" data-name="Path 264" transform="translate(1349 5844.334)" fill="none" opacity="0.4">
      <path d="M22.5,0A22.616,22.616,0,0,1,41.988,11.247,22.114,22.114,0,0,1,45,22.5,22.5,22.5,0,1,1,22.5,0Z" stroke="none"/>
      <path d="M 22.5 1 C 19.59708023071289 1 16.78152084350586 1.568321228027344 14.13154029846191 2.689170837402344 C 11.57144927978516 3.771991729736328 9.272048950195312 5.322360992431641 7.297199249267578 7.297199249267578 C 5.322360992431641 9.272048950195312 3.771991729736328 11.57144927978516 2.689170837402344 14.13154029846191 C 1.568321228027344 16.78152084350586 1 19.59708023071289 1 22.5 C 1 25.40291976928711 1.568321228027344 28.21847915649414 2.689170837402344 30.86845970153809 C 3.771991729736328 33.42855072021484 5.322360992431641 35.72795104980469 7.297199249267578 37.70280075073242 C 9.272048950195312 39.67763900756836 11.57144927978516 41.22800827026367 14.13154029846191 42.31082916259766 C 16.78152084350586 43.43167877197266 19.59708023071289 44 22.5 44 C 25.40291976928711 44 28.21847915649414 43.43167877197266 30.86845970153809 42.31082916259766 C 33.42855072021484 41.22800827026367 35.72795104980469 39.67763900756836 37.70280075073242 37.70280075073242 C 39.67763900756836 35.72795104980469 41.22800827026367 33.42855072021484 42.31082916259766 30.86845970153809 C 43.43167877197266 28.21847915649414 44 25.40291976928711 44 22.5 C 44 18.66703033447266 42.98070907592773 14.85289001464844 41.12942886352539 11.7594108581543 C 37.10572814941406 5.022209167480469 30.14146041870117 1 22.5 1 M 22.5 0 C 30.71385955810547 0 37.89971160888672 4.401359558105469 41.98796844482422 11.24665832519531 C 43.84233093261719 14.34528923034668 45 18.28745079040527 45 22.5 C 45 34.92641067504883 34.92641067504883 45 22.5 45 C 10.07358932495117 45 0 34.92641067504883 0 22.5 C 0 10.07358932495117 10.07358932495117 0 22.5 0 Z" stroke="none" fill="#fff"/>
    </g>
    <path id="XMLID_835_" d="M77.015,10.3h2.121v8.73a.312.312,0,0,0,.312.312h3.6a.312.312,0,0,0,.312-.312V10.344h2.438a.312.312,0,0,0,.31-.276l.37-3.214a.312.312,0,0,0-.31-.348H83.355V4.492c0-.607.327-.915.972-.915h1.836a.312.312,0,0,0,.312-.312V.314A.312.312,0,0,0,86.163,0h-2.53c-.018,0-.057,0-.116,0a4.848,4.848,0,0,0-3.17,1.2A3.325,3.325,0,0,0,79.241,4.15V6.506H77.015a.312.312,0,0,0-.312.312V9.991A.312.312,0,0,0,77.015,10.3Z" transform="translate(1289.911 5857.277)" fill="#fff"/>
  </g>
</svg>
