<svg xmlns="http://www.w3.org/2000/svg" xmlns:xlink="http://www.w3.org/1999/xlink" width="45" height="45" viewBox="0 0 45 45">
  <defs>
    <clipPath id="clip-path">
      <rect id="Rectangle_92" data-name="Rectangle 92" width="18.813" height="15.918" fill="#fff"/>
    </clipPath>
  </defs>
  <g id="Group_272" data-name="Group 272" transform="translate(-1414 -5844.334)">
    <g id="Group_177" data-name="Group 177" transform="translate(1427 5858.874)" clip-path="url(#clip-path)">
      <path id="Path_141" data-name="Path 141" d="M18.583,1.787a7.943,7.943,0,0,1-2.2.6A3.788,3.788,0,0,0,18.064.283a7.614,7.614,0,0,1-2.416.922,3.809,3.809,0,0,0-6.59,2.605,3.923,3.923,0,0,0,.088.869A10.783,10.783,0,0,1,1.294.695,3.811,3.811,0,0,0,2.465,5.786,3.762,3.762,0,0,1,.743,5.317v.042A3.827,3.827,0,0,0,3.8,9.1a3.8,3.8,0,0,1-1,.125,3.368,3.368,0,0,1-.721-.065,3.846,3.846,0,0,0,3.56,2.654A7.655,7.655,0,0,1,.912,13.441,7.136,7.136,0,0,1,0,13.389,10.725,10.725,0,0,0,5.844,15.1,10.768,10.768,0,0,0,16.687,4.258c0-.168-.006-.331-.014-.492a7.6,7.6,0,0,0,1.909-1.978" transform="translate(-0.289 0.41)" fill="#fff"/>
    </g>
    <g id="Ellipse_15" data-name="Ellipse 15" transform="translate(1414 5844.334)" fill="none" stroke="#fff" stroke-width="1" opacity="0.4">
      <circle cx="22.5" cy="22.5" r="22.5" stroke="none"/>
      <circle cx="22.5" cy="22.5" r="22" fill="none"/>
    </g>
  </g>
</svg>
