<svg xmlns="http://www.w3.org/2000/svg" width="75.514" height="75.516" viewBox="0 0 75.514 75.516">
  <g id="FILLED_OUTLINE" transform="translate(-15.999 -16)">
    <path id="Path_226" data-name="Path 226" d="M37,0A37,37,0,1,1,0,37,37,37,0,0,1,37,0Z" transform="translate(16.755 16.751)" fill="#5ebf88" opacity="0.2"/>
    <path id="Path_205" data-name="Path 205" d="M147.4,24a36.326,36.326,0,0,0-20.275,6.147l10.521,10.529a4.895,4.895,0,0,0,6.922,0,7.564,7.564,0,0,1,10.7,0l.315.315a2.67,2.67,0,0,0,3.776,0,2.67,2.67,0,0,1,3.776,0l2.32,2.32a24.306,24.306,0,0,0,17.039,7.118A36.514,36.514,0,0,0,147.4,24Z" transform="translate(-93.64 -6.741)" fill="#31c292"/>
    <rect id="Rectangle_104" data-name="Rectangle 104" width="30" height="43" rx="15" transform="translate(24.755 42.751)" fill="#31c292"/>
    <circle id="Ellipse_19" data-name="Ellipse 19" cx="2.5" cy="2.5" r="2.5" transform="translate(28.755 85.751)" fill="#fff"/>
    <path id="Path_227" data-name="Path 227" d="M2.5,0A2.5,2.5,0,1,1,0,2.5,2.5,2.5,0,0,1,2.5,0Z" transform="translate(45.755 85.751)" fill="#fff"/>
    <path id="Path_206" data-name="Path 206" d="M146.068,49.981h-2.517V21.034a2.517,2.517,0,0,0-5.034,0V49.981H136V21.034a5.034,5.034,0,0,1,10.068,0Z" transform="translate(-101.122 0)" fill="#6e6e6e"/>
    <path id="Path_207" data-name="Path 207" d="M112,248h2.517v28.947H112Z" transform="translate(-80.898 -195.502)" fill="#7fddbb"/>
    <path id="Path_208" data-name="Path 208" d="M160,248h2.517v28.947H160Z" transform="translate(-121.347 -195.502)" fill="#7fddbb"/>
    <path id="Path_209" data-name="Path 209" d="M208,248h2.517v28.947H208Z" transform="translate(-161.795 -195.502)" fill="#7fddbb"/>
    <path id="Path_210" data-name="Path 210" d="M248.068,209.057l-13.639,28.354a2.517,2.517,0,0,0,1.177,3.359l22.684,10.911,14.562-30.205Z" transform="translate(-183.856 -162.685)" fill="#fff"/>
    <path id="Path_211" data-name="Path 211" d="M344.984,215.686,322.3,204.775a2.517,2.517,0,0,1,2.182-4.537l22.684,10.911Z" transform="translate(-256.912 -155.044)" fill="#fff"/>
    <circle id="Ellipse_21" data-name="Ellipse 21" cx="7.551" cy="7.551" r="7.551" transform="translate(62.589 58.431)" fill="#fff"/>
    <path id="Path_212" data-name="Path 212" d="M0,0H2.517V12.586H0Z" transform="translate(57.89 76.845) rotate(-64.332)" fill="#bebebe"/>
    <path id="Path_213" data-name="Path 213" d="M322.43,32.81l-3.776,2.517L311.1,30.293l3.776-5.034L313.62,24l-7.551,3.776-2.922-1.753a5.034,5.034,0,0,0-6.15.757l-1,1,20.963,12.811a2.517,2.517,0,0,0,3.092-.368l4.891-4.891Z" transform="translate(-235.951 -6.742)" fill="#fff"/>
    <path id="Path_214" data-name="Path 214" d="M328.093,297.8a7.6,7.6,0,0,0,.45-1.18l-3.409-1.64a12.232,12.232,0,0,0,.731-4.342l-.033-2.144a7.58,7.58,0,0,0-2.668-1.283l-1.7,1.312a12.234,12.234,0,0,0-2.936,3.281l-3.409-1.64a7.6,7.6,0,0,0-.64,1.086l0,0a7.591,7.591,0,0,0-.449,1.178l3.409,1.64a12.231,12.231,0,0,0-.731,4.341l.033,2.144a7.58,7.58,0,0,0,2.668,1.283l1.7-1.312a12.232,12.232,0,0,0,2.936-3.281l3.409,1.64A7.6,7.6,0,0,0,328.093,297.8Zm-8.527.739-.332.257-.006-.419a9.71,9.71,0,0,1,.5-3.2l2.033.978A9.711,9.711,0,0,1,319.566,298.543Zm3.284-4.657-2.033-.978a9.711,9.711,0,0,1,2.193-2.389l.332-.257.006.419a9.71,9.71,0,0,1-.5,3.2Z" transform="translate(-251.148 -228.548)" fill="#dfdfdf"/>
    <g id="Group_267" data-name="Group 267" transform="translate(15.999 16)">
      <path id="Path_215" data-name="Path 215" d="M221.138,18.517a35.782,35.782,0,0,1,3.647.186l.258-2.5a38.212,38.212,0,0,0-10.413.359l.431,2.48a35.585,35.585,0,0,1,6.077-.522Z" transform="translate(-183.381 -16)" fill="#3a312b"/>
      <path id="Path_216" data-name="Path 216" d="M33.1,63.582l-1.477-2.038a37.786,37.786,0,0,0-11.716,47.335l2.255-1.118A35.269,35.269,0,0,1,33.1,63.582Z" transform="translate(-15.999 -54.379)" fill="#3a312b"/>
      <path id="Path_217" data-name="Path 217" d="M263.729,470.714l.085,2.516A37.688,37.688,0,0,0,274.23,471.4L273.45,469A35.175,35.175,0,0,1,263.729,470.714Z" transform="translate(-224.756 -397.738)" fill="#3a312b"/>
      <path id="Path_218" data-name="Path 218" d="M112,248h2.517v28.947H112Z" transform="translate(-96.897 -211.502)" fill="#3a312b"/>
      <path id="Path_219" data-name="Path 219" d="M160,248h2.517v28.947H160Z" transform="translate(-137.346 -211.502)" fill="#3a312b"/>
      <path id="Path_220" data-name="Path 220" d="M208,248h2.517v28.947H208Z" transform="translate(-177.794 -211.502)" fill="#3a312b"/>
      <path id="Path_221" data-name="Path 221" d="M131.249,54.972,108.566,44.061a3.78,3.78,0,0,0-5.039,1.766l-6.8,14.145V47.464a6.3,6.3,0,0,0-6.293-6.293H85.4V21.035a5.034,5.034,0,1,0-10.068,0V41.172H70.293A6.3,6.3,0,0,0,64,47.464V80.187A6.3,6.3,0,0,0,68.149,86.1a3.776,3.776,0,1,0,6.962.377h10.5a3.776,3.776,0,1,0,6.962-.377,6.316,6.316,0,0,0,3.991-4.521l17.772,8.549a1.258,1.258,0,0,0,1.68-.589l15.821-32.891a1.259,1.259,0,0,0-.589-1.68ZM106.931,46.2a1.251,1.251,0,0,1,.544.124l21.549,10.366-1.091,2.268L106.384,48.6a1.26,1.26,0,0,1-.589-1.679h0a1.26,1.26,0,0,1,1.136-.713ZM77.844,21.035a2.517,2.517,0,0,1,5.034,0V41.172H77.844Zm-5.034,66.7a1.259,1.259,0,1,1-1.259-1.259A1.259,1.259,0,0,1,72.81,87.738ZM89.171,89a1.259,1.259,0,1,1,1.259-1.259A1.259,1.259,0,0,1,89.171,89Zm1.259-5.034H70.293a3.78,3.78,0,0,1-3.776-3.776V47.464a3.78,3.78,0,0,1,3.776-3.776h5.034v6.293h2.517V43.689h5.034v6.293H85.4V43.689H90.43a3.78,3.78,0,0,1,3.776,3.776V65.2l-4.318,8.976a3.776,3.776,0,0,0,1.766,5.039L94.2,80.443a3.78,3.78,0,0,1-3.766,3.52Zm23.864,3.355L92.745,76.952a1.259,1.259,0,0,1-.589-1.68l12.1-25.147a3.757,3.757,0,0,0,1.04.741l21.549,10.365Z" transform="translate(-56.449 -16)" fill="#3a312b"/>
      <path id="Path_222" data-name="Path 222" d="M316.771,278.575a8.81,8.81,0,1,0,4.12,11.758,8.81,8.81,0,0,0-4.12-11.758Zm2.283,9.478-2.256-1.085a12.232,12.232,0,0,0,.731-4.342l-.007-.436A6.315,6.315,0,0,1,319.055,288.053Zm-7.824,2.473-.332.257-.006-.419a9.71,9.71,0,0,1,.5-3.2l2.033.978A9.71,9.71,0,0,1,311.23,290.527Zm1.251-5.635a9.71,9.71,0,0,1,2.193-2.389l.332-.257.006.419a9.71,9.71,0,0,1-.5,3.2Zm.481-4.669c.171,0,.343.009.515.024l-.344.266a12.233,12.233,0,0,0-2.936,3.281l-2.254-1.084A6.314,6.314,0,0,1,312.962,280.222Zm-6.113,4.753,2.257,1.086a12.232,12.232,0,0,0-.731,4.341l.007.44a6.306,6.306,0,0,1-1.533-5.867Zm5.577,7.809.345-.267a12.232,12.232,0,0,0,2.936-3.281l2.256,1.085a6.315,6.315,0,0,1-5.537,2.463Z" transform="translate(-258.811 -236.532)" fill="#3a312b"/>
      <path id="Path_223" data-name="Path 223" d="M0,0H2.517V12.586H0Z" transform="translate(41.891 60.845) rotate(-64.332)" fill="#3a312b"/>
      <path id="Path_224" data-name="Path 224" d="M238.915,110.839a3.933,3.933,0,0,0-5.556,0,1.413,1.413,0,0,1-2,0l-.315-.315a8.833,8.833,0,0,0-12.478,0A3.612,3.612,0,0,1,216,111.589v2.517a6.113,6.113,0,0,0,4.351-1.8,6.313,6.313,0,0,1,8.918,0l.315.315a3.933,3.933,0,0,0,5.556,0,1.412,1.412,0,0,1,2,0l2.32,2.32a25.382,25.382,0,0,0,16.961,7.463,35.164,35.164,0,0,1,1.034,6.4l2.511-.171a37.4,37.4,0,0,0-3.909-14.324l-2.249,1.13a35.1,35.1,0,0,1,1.843,4.392,22.875,22.875,0,0,1-14.412-6.674Z" transform="translate(-184.536 -93.479)" fill="#3a312b"/>
      <path id="Path_225" data-name="Path 225" d="M288.6,22.108l20.963,12.811a3.765,3.765,0,0,0,4.639-.552l4.891-4.891a1.259,1.259,0,0,0,0-1.78l-2.517-2.517a1.259,1.259,0,0,0-1.588-.157l-3.078,2.052-5.746-3.831,2.977-3.97a1.259,1.259,0,0,0-.117-1.645l-1.259-1.259a1.258,1.258,0,0,0-1.453-.236L299.382,19.6l-2.33-1.4a6.284,6.284,0,0,0-7.687.946l-1,1a1.259,1.259,0,0,0,.234,1.964Zm7.155-1.748,2.922,1.753a1.259,1.259,0,0,0,1.21.046l6.307-3.153-2.842,3.79a1.258,1.258,0,0,0,.309,1.8l7.551,5.034a1.259,1.259,0,0,0,1.4,0l2.917-1.945.9.9-4,4a1.255,1.255,0,0,1-1.546.184L291.283,20.8a3.77,3.77,0,0,1,4.474-.436Z" transform="translate(-245.209 -16)" fill="#3a312b"/>
    </g>
  </g>
</svg>
