<svg xmlns="http://www.w3.org/2000/svg" width="87.05" height="55.704" viewBox="0 0 87.05 55.704">
  <g id="group" transform="translate(0 -92.184)">
    <path id="Path_233" data-name="Path 233" d="M357.83,261.074l-6.245-2.641a2.184,2.184,0,0,1-1.364-2v-4.044h-9.188v4.044a2.184,2.184,0,0,1-1.364,2l-6.245,2.641a4.368,4.368,0,0,0-2.728,3.995v14.459h29.862V265.069A4.369,4.369,0,0,0,357.83,261.074Z" transform="translate(-274.471 -132.969)" fill="#0768b3" opacity="0.2"/>
    <path id="Path_234" data-name="Path 234" d="M382.849,201.826h-.374a7.158,7.158,0,0,1-7.158-7.157v-6.482h14.689v6.482A7.157,7.157,0,0,1,382.849,201.826Z" transform="translate(-311.506 -79.68)" fill="#ffe0c8"/>
    <path id="Path_235" data-name="Path 235" d="M379.515,194.482v-6.3h-4.2v6.3a7.339,7.339,0,0,0,9.443,7.036A7.345,7.345,0,0,1,379.515,194.482Z" transform="translate(-311.506 -79.681)" fill="#fbd1b1"/>
    <path id="Path_236" data-name="Path 236" d="M378.59,157.332h-2.1a7.344,7.344,0,0,0-7.344,7.344v1.678a1.045,1.045,0,0,0,1.513.943,10.166,10.166,0,0,0,3.152-2.739,1.031,1.031,0,0,1,1.446-.184c3.329,2.484,7.966,1.913,9.841,1.543a1.043,1.043,0,0,0,.836-1.027v-.214A7.344,7.344,0,0,0,378.59,157.332Z" transform="translate(-306.385 -54.072)" fill="#d59f63"/>
    <path id="Path_237" data-name="Path 237" d="M370.66,171.866a10.167,10.167,0,0,0,3.152-2.739.955.955,0,0,1,.5-.332,8.445,8.445,0,0,1-1.4-5.959,7.339,7.339,0,0,0-3.762,6.408v1.678A1.045,1.045,0,0,0,370.66,171.866Z" transform="translate(-306.385 -58.64)" fill="#cd915a"/>
    <path id="Path_239" data-name="Path 239" d="M28.587,286.342l-4.851-1.819a2.362,2.362,0,0,1-1.533-2.212V279.28H15.117v3.031a2.362,2.362,0,0,1-1.533,2.212l-4.851,1.819a4.725,4.725,0,0,0-3.066,4.424v11.079H31.653V290.766A4.725,4.725,0,0,0,28.587,286.342Z" transform="translate(-4.703 -155.286)" fill="#0768b3" opacity="0.2"/>
    <path id="Path_241" data-name="Path 241" d="M41.77,188.2h-.091a8.223,8.223,0,0,1-8.223-8.223v-3.635a8.223,8.223,0,0,1,8.223-8.223h.091a8.223,8.223,0,0,1,8.223,8.223v3.635A8.223,8.223,0,0,1,41.77,188.2Z" transform="translate(-27.768 -63.026)" fill="#ffe0c8"/>
    <path id="Path_242" data-name="Path 242" d="M38.181,179.934V176.39a8.268,8.268,0,0,1,5.906-7.921,8.262,8.262,0,0,0-10.631,7.922v3.544a8.262,8.262,0,0,0,10.631,7.922A8.269,8.269,0,0,1,38.181,179.934Z" transform="translate(-27.768 -63.027)" fill="#fbd1b1"/>
    <circle id="Ellipse_24" data-name="Ellipse 24" cx="4.725" cy="4.725" r="4.725" transform="translate(9.232 100.37)" fill="#6e4b53"/>
    <path id="Path_243" data-name="Path 243" d="M33.456,176.39v2.651a12.318,12.318,0,0,0,4.137-3.051,1.157,1.157,0,0,1,1.456-.24,25.952,25.952,0,0,0,10.944,2.918V176.39a8.268,8.268,0,0,0-8.268-8.268h0A8.268,8.268,0,0,0,33.456,176.39Z" transform="translate(-27.768 -63.027)" fill="#5c414b"/>
    <path id="Path_244" data-name="Path 244" d="M37.21,176.039a8.256,8.256,0,0,0-3.754,6.922v2.651a12.316,12.316,0,0,0,4.137-3.051,1.107,1.107,0,0,1,.719-.381A9.352,9.352,0,0,1,37.21,176.039Z" transform="translate(-27.768 -69.598)" fill="#503441"/>
    <path id="Path_246" data-name="Path 246" d="M186.467,223.255l-7.395-3.424a2.841,2.841,0,0,1-1.616-2.589V212H166.575v5.243a2.841,2.841,0,0,1-1.615,2.589l-7.4,3.424a5.682,5.682,0,0,0-3.231,5.179V246H189.7V228.434A5.683,5.683,0,0,0,186.467,223.255Z" transform="translate(-128.094 -99.444)" fill="#ffe0c8"/>
    <path id="Path_247" data-name="Path 247" d="M154.333,284.351H189.7V266.781a5.683,5.683,0,0,0-3.231-5.179l-7.345-3.4-5.183,5.183a2.72,2.72,0,0,1-3.847,0l-5.183-5.183-7.345,3.4a5.682,5.682,0,0,0-3.231,5.179v17.569Z" transform="translate(-128.093 -137.792)" fill="#5ebf88"/>
    <path id="Path_248" data-name="Path 248" d="M211.854,157.681h0a9.521,9.521,0,0,1-9.521-9.521V140h19.042v8.161A9.521,9.521,0,0,1,211.854,157.681Z" transform="translate(-167.932 -39.685)" fill="#ffe0c8"/>
    <path id="Path_249" data-name="Path 249" d="M207.774,148.16V140h-5.441v8.161a9.513,9.513,0,0,0,12.241,9.122A9.521,9.521,0,0,1,207.774,148.16Z" transform="translate(-167.932 -39.685)" fill="#fbd1b1"/>
    <path id="Path_250" data-name="Path 250" d="M206.574,100h-2.72a9.521,9.521,0,0,0-9.521,9.521V111.7a1.355,1.355,0,0,0,1.961,1.222,13.182,13.182,0,0,0,4.086-3.55,1.336,1.336,0,0,1,1.874-.239c4.316,3.221,10.328,2.48,12.758,2A1.352,1.352,0,0,0,216.1,109.8v-.278A9.521,9.521,0,0,0,206.574,100Z" transform="translate(-161.293 -6.486)" fill="#5c414b"/>
    <path id="Path_251" data-name="Path 251" d="M196.3,118.841a13.182,13.182,0,0,0,4.086-3.55,1.237,1.237,0,0,1,.646-.43,10.947,10.947,0,0,1-1.815-7.725,9.514,9.514,0,0,0-4.877,8.308v2.176A1.355,1.355,0,0,0,196.3,118.841Z" transform="translate(-161.293 -12.409)" fill="#503441"/>
    <g id="Group_268" data-name="Group 268" transform="translate(26.24 126.646)">
      <path id="Path_252" data-name="Path 252" d="M161.135,302.88a4.081,4.081,0,0,0-1.2-2.885l-5.116-5.116a5.858,5.858,0,0,0-.49,2.343v17.569h6.8V302.88Z" transform="translate(-154.334 -294.879)" fill="#54c694"/>
      <path id="Path_253" data-name="Path 253" d="M322.332,302.88a4.081,4.081,0,0,1,1.2-2.885l5.116-5.116a5.858,5.858,0,0,1,.49,2.343v17.569h-6.8Z" transform="translate(-293.769 -294.879)" fill="#54c694"/>
    </g>
    <path id="Path_255" data-name="Path 255" d="M178.283,123.565l-7.41-3.293a1.452,1.452,0,0,1-.861-1.326v-2.035a10.8,10.8,0,0,0,4.089-8.46v-2.864a2.642,2.642,0,0,0,1.363-2.309V103a10.828,10.828,0,0,0-10.815-10.815h-2.726A10.828,10.828,0,0,0,151.107,103v2.522a2.674,2.674,0,0,0,1.018,2.143,2.488,2.488,0,0,0,.345.224v.563a10.8,10.8,0,0,0,4.089,8.46v2.035a1.452,1.452,0,0,1-.861,1.326l-7.41,3.293a6.732,6.732,0,0,0-3.995,6.147v16.9a1.275,1.275,0,1,0,2.55,0v-16.9a4.169,4.169,0,0,1,.026-.439l3.414,3.414a2.8,2.8,0,0,1,.824,1.99v11.935a1.275,1.275,0,1,0,2.55,0V134.677a5.328,5.328,0,0,0-1.571-3.793l-4.07-4.071a4.165,4.165,0,0,1,1.307-.918l7.285-3.238,5.4,5.4v18.552a1.275,1.275,0,1,0,2.55,0V128.06l5.4-5.4,7.285,3.238a4.163,4.163,0,0,1,1.307.919l-4.07,4.07a5.328,5.328,0,0,0-1.571,3.793v11.935a1.275,1.275,0,0,0,2.55,0V134.677a2.8,2.8,0,0,1,.824-1.99l3.414-3.414a4.167,4.167,0,0,1,.026.438v16.9a1.275,1.275,0,1,0,2.55,0v-16.9A6.734,6.734,0,0,0,178.283,123.565ZM155.02,108.451v-.573a7.539,7.539,0,0,0,2.316-1.5,1.275,1.275,0,0,0-1.73-1.874,4.58,4.58,0,0,1-1.893,1.131.206.206,0,0,1-.034.006.259.259,0,0,1-.022-.115V103a8.275,8.275,0,0,1,8.265-8.265h2.726A8.275,8.275,0,0,1,172.913,103v.278a.082.082,0,0,1-.057.084c-7.636,1.508-11.466-1.334-12.758-2.626a1.275,1.275,0,1,0-1.8,1.8c3.96,3.96,9.738,4.031,13.256,3.609v2.3a8.265,8.265,0,0,1-16.53,0Zm8.265,10.815a10.754,10.754,0,0,0,4.176-.84v.519a3.993,3.993,0,0,0,.564,2.042l-4.741,4.74-4.74-4.74a3.994,3.994,0,0,0,.564-2.042v-.519A10.756,10.756,0,0,0,163.285,119.267Z" transform="translate(-119.759 0)"/>
    <path id="Path_256" data-name="Path 256" d="M22.994,147.169a9.451,9.451,0,0,0-4.334-7.94,5.364,5.364,0,1,0-10.238,0,9.45,9.45,0,0,0-4.333,7.94v2.726a9.447,9.447,0,0,0,4.089,7.777v2.8a1.443,1.443,0,0,1-.8,1.3l-4.41,2.205A5.335,5.335,0,0,0,0,168.777v11.1a1.275,1.275,0,0,0,2.55,0V169.328l2.077,2.077a2.8,2.8,0,0,1,.824,1.99v6.484a1.275,1.275,0,0,0,2.55,0V173.4A5.329,5.329,0,0,0,6.431,169.6L3.54,166.711c-.014-.014-.029-.026-.043-.039a2.844,2.844,0,0,1,.609-.412l4.41-2.205a4.062,4.062,0,0,0,.632-.395l3.118,3.118v13.1a1.275,1.275,0,1,0,2.55,0v-13.1l3.118-3.118a4.045,4.045,0,0,0,.632.395l1.216.608a1.275,1.275,0,1,0,1.141-2.281l-1.216-.608a1.443,1.443,0,0,1-.8-1.3v-2.8a9.448,9.448,0,0,0,4.089-7.777v-2.726Zm-12.266-9.54a2.813,2.813,0,1,1,5.627,0,2.858,2.858,0,0,1-.045.5,9.452,9.452,0,0,0-5.534,0A2.832,2.832,0,0,1,10.728,137.629Zm2.813,2.638a6.91,6.91,0,0,1,6.9,6.9v.462a8,8,0,0,1-8.608-2.59,1.275,1.275,0,0,0-1.922-.137,8.342,8.342,0,0,1-3.27,2.088A6.909,6.909,0,0,1,13.541,140.267ZM16.488,161.5l-2.947,2.947L10.595,161.5a4.038,4.038,0,0,0,.133-1.023V158.92a9.47,9.47,0,0,0,5.627,0v1.557A4.037,4.037,0,0,0,16.488,161.5Zm-2.947-4.7a6.91,6.91,0,0,1-6.9-6.9v-.264a10.224,10.224,0,0,0,4.1-2.041,11.505,11.505,0,0,0,2.365,1.721,10.143,10.143,0,0,0,4.873,1.258,10.684,10.684,0,0,0,2.458-.294A6.911,6.911,0,0,1,13.541,156.8Z" transform="translate(0 -33.266)"/>
    <path id="Path_257" data-name="Path 257" d="M383.481,174.56l-7.136-3.568a1.443,1.443,0,0,1-.8-1.3v-1.807a8.071,8.071,0,0,0,2.726-6.048v-1.451h.088a1.275,1.275,0,0,0,1.275-1.275v-2.726a8.1,8.1,0,0,0-8.09-8.09h-2.726a8.1,8.1,0,0,0-8.09,8.09v2.726A1.275,1.275,0,0,0,362,160.389l.088,0v1.453a8.071,8.071,0,0,0,2.726,6.049V169.7a1.442,1.442,0,0,1-.8,1.3,1.275,1.275,0,1,0,1.14,2.281,4.061,4.061,0,0,0,.632-.395L368.9,176v17.19a1.275,1.275,0,0,0,2.55,0V176l3.118-3.118a4.046,4.046,0,0,0,.632.395l6.905,3.453-2.094,2.094a5.329,5.329,0,0,0-1.571,3.793v10.573a1.275,1.275,0,1,0,2.55,0V182.613a2.8,2.8,0,0,1,.824-1.99l1.984-1.984a2.842,2.842,0,0,1,.093.718v13.828a1.275,1.275,0,0,0,2.55,0V179.358A5.334,5.334,0,0,0,383.481,174.56Zm-20.2-18.173a5.546,5.546,0,0,1,5.539-5.539h2.726a5.546,5.546,0,0,1,5.539,5.539V157.8a19.5,19.5,0,0,1-8.921-2.477,1.275,1.275,0,0,0-1.609.159,8.352,8.352,0,0,1-3.275,2.09v-1.188Zm1.363,3.4a10.79,10.79,0,0,0,2.993-1.826,22.654,22.654,0,0,0,8.086,2.3v1.583a5.539,5.539,0,1,1-11.079,0v-2.056Zm5.539,10.145a8.05,8.05,0,0,0,2.813-.505v.272a4.031,4.031,0,0,0,.133,1.023l-2.947,2.947-2.947-2.947a4.038,4.038,0,0,0,.133-1.023v-.272A8.05,8.05,0,0,0,370.179,169.929Z" transform="translate(-299.395 -46.573)"/>
  </g>
</svg>
