<svg xmlns="http://www.w3.org/2000/svg" width="77.755" height="69.261" viewBox="0 0 77.755 69.261">
  <g id="sun-umbrella_1_" data-name="sun-umbrella (1)" transform="translate(0 -27.964)">
    <circle id="Ellipse_22" data-name="Ellipse 22" cx="7" cy="7" r="7" transform="translate(56.877 29.559)" fill="#ffda2d"/>
    <path id="Path_228" data-name="Path 228" d="M53.431,64.228A22.78,22.78,0,0,0,12.14,83.483l1.926,4.129L55.356,68.357Z" transform="translate(-8.482 -19.598)" fill="#5ebf88"/>
    <path id="Path_229" data-name="Path 229" d="M26.728,85.076c-1.964,0-3.7-1.007-5.541-2.073-2.106-1.221-4.284-2.483-7.064-2.483S9.166,81.783,7.059,83c-1.839,1.066-3.577,2.073-5.541,2.073a1.519,1.519,0,0,0,0,3.037c2.781,0,4.958-1.262,7.064-2.483,1.839-1.066,3.577-2.073,5.541-2.073s3.7,1.007,5.541,2.073c2.106,1.221,4.284,2.483,7.064,2.483,2.8,0,4.963-1.33,6.87-2.5,1.716-1.056,3.336-2.053,5.279-2.053s3.563,1,5.279,2.053c1.907,1.173,4.068,2.5,6.87,2.5,2.781,0,4.958-1.262,7.064-2.483,1.839-1.066,3.577-2.073,5.541-2.073s3.7,1.007,5.541,2.073c2.106,1.221,4.284,2.483,7.064,2.483a1.519,1.519,0,1,0,0-3.037c-1.964,0-3.7-1.007-5.541-2.073-2.106-1.221-4.284-2.483-7.064-2.483S58.674,81.783,56.568,83c-1.839,1.066-3.577,2.073-5.541,2.073-1.942,0-3.563-1-5.279-2.053-1.907-1.173-4.068-2.5-6.87-2.5-.217,0-.429.011-.639.026L28.247,59.122l19.27-8.986a1.519,1.519,0,0,0,.734-2.018l-1.926-4.129a24.3,24.3,0,0,0-30.894-12.35l-1.3-2.8a1.519,1.519,0,1,0-2.753,1.284l1.3,2.8a24.329,24.329,0,0,0-10.4,31.605l1.926,4.129a1.519,1.519,0,0,0,2.018.734l19.268-8.985L35.23,81.282a22.591,22.591,0,0,0-3.223,1.741c-1.716,1.056-3.336,2.053-5.279,2.053ZM18.72,60.213c-3.57-8.038-7.756-23.194-3.4-25.224h0c4.9-2.285,14.413,13.247,17.137,18.819ZM43.573,45.272l1.284,2.753-9.648,4.5c-3.114-6.379-8.7-15.451-14.635-19.2A21.323,21.323,0,0,1,43.573,45.272ZM5.035,63.243a21.3,21.3,0,0,1,5.627-25.295C9.724,44.913,13.077,55,15.967,61.5L6.319,66Z" transform="translate(0)"/>
    <path id="Path_230" data-name="Path 230" d="M374.353,44.671A8.353,8.353,0,1,0,366,36.319,8.362,8.362,0,0,0,374.353,44.671Zm0-13.668a5.315,5.315,0,1,1-5.315,5.315A5.321,5.321,0,0,1,374.353,31Z" transform="translate(-310.417 -0.002)"/>
    <ellipse id="Ellipse_23" data-name="Ellipse 23" cx="2" cy="1.5" rx="2" ry="1.5" transform="translate(36.877 89.559)"/>
    <path id="Path_231" data-name="Path 231" d="M321.98,440.111a1.519,1.519,0,0,0-1.519-1.519c-1.964,0-3.7-1.007-5.541-2.073-2.106-1.221-4.284-2.483-7.064-2.483s-4.958,1.262-7.064,2.483c-1.839,1.066-3.577,2.073-5.541,2.073-1.789,0-3.254-.811-4.984-1.872a1.519,1.519,0,0,0-1.587,2.59,12.431,12.431,0,0,0,6.571,2.319c2.78,0,4.958-1.262,7.064-2.483,1.839-1.066,3.577-2.073,5.541-2.073s3.7,1.007,5.541,2.073c2.106,1.221,4.284,2.483,7.064,2.483A1.519,1.519,0,0,0,321.98,440.111Z" transform="translate(-244.225 -344.404)"/>
    <path id="Path_232" data-name="Path 232" d="M1.519,441.629c2.781,0,4.958-1.262,7.064-2.483,1.839-1.066,3.577-2.073,5.541-2.073s3.7,1.007,5.541,2.073c2.106,1.221,4.284,2.483,7.064,2.483A12.431,12.431,0,0,0,33.3,439.31a1.519,1.519,0,0,0-1.587-2.59c-1.73,1.06-3.2,1.872-4.984,1.872-1.964,0-3.7-1.007-5.541-2.073-2.106-1.221-4.284-2.483-7.064-2.483S9.166,435.3,7.06,436.519c-1.84,1.066-3.577,2.073-5.541,2.073a1.519,1.519,0,1,0,0,3.037Z" transform="translate(0 -344.404)"/>
  </g>
</svg>
