<svg xmlns="http://www.w3.org/2000/svg" width="72.244" height="73.85" viewBox="0 0 72.244 73.85">
  <g id="ship_1_" data-name="ship (1)" transform="translate(-5.567)">
    <path id="Path_258" data-name="Path 258" d="M108.061,252.95l.241.08-7.947,23.842c-4.046-.627-4.736-3.051-9.97-3.051-6.02,0-6.02,3.211-12.041,3.211s-6.02-3.211-12.041-3.211c-5.218,0-5.908,2.424-9.938,3.051L48.419,253.03l.241-.08L78.36,239.3Z" transform="translate(-36.671 -204.787)" fill="#fff"/>
    <path id="Path_259" data-name="Path 259" d="M288.109,203.666l-2.167,6.5-.241-.08L256,196.441v-7.224l22.3,10.034Z" transform="translate(-214.311 -161.925)" fill="#5ebf88" opacity="0.2"/>
    <path id="Path_260" data-name="Path 260" d="M107.4,122.435h34.517a3.221,3.221,0,0,1,3.211,3.211V141.7l-.177.4-22.3-10.034L100.35,142.1l-.176-.4V125.646a3.22,3.22,0,0,1,3.211-3.211Z" transform="translate(-80.961 -104.775)" fill="#5ebf88"/>
    <path id="Path_261" data-name="Path 261" d="M65.5,189.217v7.224L35.8,210.088l-.241.08-2.168-6.5,9.809-4.415Z" transform="translate(-23.811 -161.925)" fill="#5ebf88" opacity="0.2"/>
    <path id="Path_262" data-name="Path 262" d="M180.764,65.285h-30.5V55.652h30.5Z" transform="translate(-123.824 -47.625)" fill="#fff"/>
    <g id="Group_269" data-name="Group 269" transform="translate(5.567)">
      <rect id="Rectangle_105" data-name="Rectangle 105" width="35.32" height="3.211" transform="translate(18.462 21.673)" fill="#231f20"/>
      <rect id="Rectangle_106" data-name="Rectangle 106" width="3.211" height="3.211" transform="translate(50.571 26.49)" fill="#231f20"/>
      <rect id="Rectangle_107" data-name="Rectangle 107" width="3.211" height="3.211" transform="translate(18.462 26.49)" fill="#231f20"/>
      <rect id="Rectangle_108" data-name="Rectangle 108" width="3.211" height="3.211" transform="translate(34.517 11.238)" fill="#231f20"/>
      <rect id="Rectangle_109" data-name="Rectangle 109" width="3.211" height="3.211" transform="translate(39.333 11.238)" fill="#231f20"/>
      <rect id="Rectangle_110" data-name="Rectangle 110" width="3.211" height="3.211" transform="translate(29.7 11.238)" fill="#231f20"/>
      <rect id="Rectangle_111" data-name="Rectangle 111" width="3.211" height="3.211" transform="translate(24.884 11.238)" fill="#231f20"/>
      <rect id="Rectangle_112" data-name="Rectangle 112" width="3.211" height="3.211" transform="translate(44.149 11.238)" fill="#231f20"/>
      <path id="Path_263" data-name="Path 263" d="M71.036,69.223a9.544,9.544,0,0,1-5.177,1.415l9.462-28.389a1.606,1.606,0,0,0-.864-1.972l-8.686-3.909v-15.5a4.822,4.822,0,0,0-4.816-4.816H58.546V8.027a1.605,1.605,0,0,0-1.605-1.605H43.294V0H40.084V6.422H26.437a1.605,1.605,0,0,0-1.605,1.605v8.027H22.424a4.822,4.822,0,0,0-4.816,4.816v15.5l-8.686,3.91a1.605,1.605,0,0,0-.864,1.972L17.52,70.638a9.545,9.545,0,0,1-5.177-1.415,12.669,12.669,0,0,0-6.776-1.794v3.211a9.552,9.552,0,0,1,5.265,1.417,12.667,12.667,0,0,0,6.776,1.794,13.313,13.313,0,0,0,2.354-.182,13.014,13.014,0,0,0,4.421-1.616,9.537,9.537,0,0,1,5.25-1.413A9.553,9.553,0,0,1,34.9,72.056a12.669,12.669,0,0,0,6.776,1.794,12.669,12.669,0,0,0,6.776-1.794,10.508,10.508,0,0,1,10.532,0,13.079,13.079,0,0,0,4.435,1.616,13.29,13.29,0,0,0,2.354.182,12.669,12.669,0,0,0,6.776-1.794,9.554,9.554,0,0,1,5.265-1.417V67.428A12.667,12.667,0,0,0,71.036,69.223Zm-.371-23.159L43.294,33.488V29.775L71.816,42.61ZM28.043,9.633H55.335v6.422H28.043Zm-5.619,9.633h38.53a1.607,1.607,0,0,1,1.605,1.605V34.924l-20.212-9.1a1.6,1.6,0,0,0-1.318,0L20.818,34.923V20.871A1.607,1.607,0,0,1,22.424,19.265Zm17.66,10.51v3.712L12.713,46.063,11.562,42.61Zm13.63,37.653a12.669,12.669,0,0,0-6.776,1.794,9.554,9.554,0,0,1-5.265,1.417,9.552,9.552,0,0,1-5.265-1.417,12.668,12.668,0,0,0-6.776-1.794,12.651,12.651,0,0,0-6.76,1.79,12.987,12.987,0,0,1-2.119.969l-7.02-21.06L40.084,37.021V56.19h3.211V37.021L69.644,49.128,62.623,70.19a13.027,13.027,0,0,1-2.136-.973A12.7,12.7,0,0,0,53.714,67.428Z" transform="translate(-5.567)" fill="#231f20"/>
    </g>
  </g>
</svg>
